<svg xmlns="http://www.w3.org/2000/svg" viewBox="0 0 100 100">
  <circle cx="50" cy="50" r="45" fill="#fff"/>
  <path d="M50 20c16.569 0 30 13.431 30 30 0 16.569-13.431 30-30 30-16.569 0-30-13.431-30-30 0-16.569 13.431-30 30-30zm0 12c-9.941 0-18 8.059-18 18s8.059 18 18 18 18-8.059 18-18-8.059-18-18-18z" fill="#4285f4"/>
  <path d="M85 40H50c-5.523 0-10 4.477-10 10s4.477 10 10 10h20c-2.209 5.225-7.333 9-13.333 9-8.837 0-16-7.163-16-16s7.163-16 16-16c4.418 0 8.418 1.791 11.313 4.687L75 35c-5.5-5.5-13.095-8.979-21.5-8.979-16.569 0-30 13.431-30 30 0 16.569 13.431 30 30 30 16.569 0 30-13.431 30-30 0-5.523-1.5-10.678-4.125-15.125z" fill="#ea4335"/>
  <path d="M50 32c9.941 0 18 8.059 18 18s-8.059 18-18 18-18-8.059-18-18 8.059-18 18-18z" fill="#34a853"/>
  <path d="M50 38c6.627 0 12 5.373 12 12s-5.373 12-12 12-12-5.373-12-12 5.373-12 12-12z" fill="#fbbc05"/>
</svg> 